<mxfile host="65bd71144e">
    <diagram id="ExdccTZqctQwAvQB16s_" name="Page-1">
        <mxGraphModel dx="3506" dy="2197" grid="0" gridSize="10" guides="1" tooltips="1" connect="1" arrows="1" fold="1" page="0" pageScale="1" pageWidth="827" pageHeight="1169" math="0" shadow="0">
            <root>
                <mxCell id="0"/>
                <mxCell id="1" parent="0"/>
                <mxCell id="66" value="" style="ellipse;whiteSpace=wrap;html=1;dashed=1;" vertex="1" parent="1">
                    <mxGeometry x="50" y="-17" width="731" height="377" as="geometry"/>
                </mxCell>
                <mxCell id="65" value="" style="ellipse;whiteSpace=wrap;html=1;dashed=1;" vertex="1" parent="1">
                    <mxGeometry x="-733" y="-44" width="684" height="390.5" as="geometry"/>
                </mxCell>
                <mxCell id="2M91R3iAnrZrVvDSjcHK-28" value="" style="endArrow=none;dashed=1;html=1;fontSize=12;entryX=0.45;entryY=1.013;entryDx=0;entryDy=0;entryPerimeter=0;startArrow=none;" parent="1" target="48" edge="1" source="72">
                    <mxGeometry width="50" height="50" relative="1" as="geometry">
                        <mxPoint x="-170" y="1380" as="sourcePoint"/>
                        <mxPoint x="-170" y="471" as="targetPoint"/>
                    </mxGeometry>
                </mxCell>
                <mxCell id="2M91R3iAnrZrVvDSjcHK-29" value="" style="endArrow=none;dashed=1;html=1;fontSize=12;" parent="1" target="49" edge="1">
                    <mxGeometry width="50" height="50" relative="1" as="geometry">
                        <mxPoint x="200" y="1620" as="sourcePoint"/>
                        <mxPoint x="120" y="610" as="targetPoint"/>
                    </mxGeometry>
                </mxCell>
                <mxCell id="11" value="" style="endArrow=classic;html=1;" parent="1" edge="1">
                    <mxGeometry width="50" height="50" relative="1" as="geometry">
                        <mxPoint x="200" y="1160" as="sourcePoint"/>
                        <mxPoint x="-160" y="1160" as="targetPoint"/>
                    </mxGeometry>
                </mxCell>
                <mxCell id="13" value="IWANT" style="edgeLabel;html=1;align=center;verticalAlign=middle;resizable=0;points=[];fontSize=13;" parent="11" vertex="1" connectable="0">
                    <mxGeometry x="-0.2167" y="-2" relative="1" as="geometry">
                        <mxPoint x="91" y="-8" as="offset"/>
                    </mxGeometry>
                </mxCell>
                <mxCell id="12" value="" style="endArrow=classic;html=1;" parent="1" edge="1">
                    <mxGeometry width="50" height="50" relative="1" as="geometry">
                        <mxPoint x="-160" y="1360" as="sourcePoint"/>
                        <mxPoint x="200" y="1360" as="targetPoint"/>
                    </mxGeometry>
                </mxCell>
                <mxCell id="14" value="messages" style="edgeLabel;html=1;align=center;verticalAlign=middle;resizable=0;points=[];fontSize=13;" parent="12" vertex="1" connectable="0">
                    <mxGeometry x="0.2111" y="2" relative="1" as="geometry">
                        <mxPoint x="-168" y="-8" as="offset"/>
                    </mxGeometry>
                </mxCell>
                <mxCell id="18" value="Starting heartbeat" style="html=1;dashed=0;whitespace=wrap;fontSize=13;" parent="1" vertex="1">
                    <mxGeometry x="-280" y="720" width="240" height="40" as="geometry"/>
                </mxCell>
                <mxCell id="20" value="" style="endArrow=classic;html=1;" parent="1" edge="1">
                    <mxGeometry width="50" height="50" relative="1" as="geometry">
                        <mxPoint x="-160" y="1080" as="sourcePoint"/>
                        <mxPoint x="200" y="1080" as="targetPoint"/>
                    </mxGeometry>
                </mxCell>
                <mxCell id="21" value="IHAVE" style="edgeLabel;html=1;align=center;verticalAlign=middle;resizable=0;points=[];fontSize=13;" parent="20" vertex="1" connectable="0">
                    <mxGeometry x="0.2111" y="2" relative="1" as="geometry">
                        <mxPoint x="-168" y="-8" as="offset"/>
                    </mxGeometry>
                </mxCell>
                <mxCell id="28" value="" style="endArrow=classic;html=1;" parent="1" edge="1">
                    <mxGeometry width="50" height="50" relative="1" as="geometry">
                        <mxPoint x="200" y="1120" as="sourcePoint"/>
                        <mxPoint x="-160" y="1120" as="targetPoint"/>
                    </mxGeometry>
                </mxCell>
                <mxCell id="29" value="GRAFT" style="edgeLabel;html=1;align=center;verticalAlign=middle;resizable=0;points=[];fontSize=13;" parent="28" vertex="1" connectable="0">
                    <mxGeometry x="-0.2167" y="-2" relative="1" as="geometry">
                        <mxPoint x="91" y="-8" as="offset"/>
                    </mxGeometry>
                </mxCell>
                <mxCell id="48" value="Peer 1" style="ellipse;whiteSpace=wrap;html=1;" vertex="1" parent="1">
                    <mxGeometry x="-220" y="130" width="120" height="80" as="geometry"/>
                </mxCell>
                <mxCell id="49" value="Peer 6" style="ellipse;whiteSpace=wrap;html=1;" vertex="1" parent="1">
                    <mxGeometry x="140" y="130" width="120" height="80" as="geometry"/>
                </mxCell>
                <mxCell id="56" value="" style="ellipse;whiteSpace=wrap;html=1;" vertex="1" parent="1">
                    <mxGeometry x="-640" y="80" width="120" height="80" as="geometry"/>
                </mxCell>
                <mxCell id="59" value="" style="endArrow=classic;html=1;entryX=0;entryY=0;entryDx=0;entryDy=0;exitX=1;exitY=0;exitDx=0;exitDy=0;" edge="1" parent="1" source="48" target="49">
                    <mxGeometry width="50" height="50" relative="1" as="geometry">
                        <mxPoint x="10" y="310" as="sourcePoint"/>
                        <mxPoint x="60" y="260" as="targetPoint"/>
                    </mxGeometry>
                </mxCell>
                <mxCell id="60" value="" style="endArrow=classic;html=1;entryX=1;entryY=1;entryDx=0;entryDy=0;exitX=0;exitY=1;exitDx=0;exitDy=0;" edge="1" parent="1" source="49" target="48">
                    <mxGeometry width="50" height="50" relative="1" as="geometry">
                        <mxPoint x="-107.57359312880726" y="151.71572875253833" as="sourcePoint"/>
                        <mxPoint x="147.57359312880726" y="151.71572875253833" as="targetPoint"/>
                    </mxGeometry>
                </mxCell>
                <mxCell id="62" value="" style="ellipse;whiteSpace=wrap;html=1;" vertex="1" parent="1">
                    <mxGeometry x="450" y="70" width="120" height="80" as="geometry"/>
                </mxCell>
                <mxCell id="67" value="Mesh A" style="text;html=1;align=center;verticalAlign=middle;resizable=0;points=[];autosize=1;strokeColor=none;fillColor=none;fontSize=15;fontStyle=1" vertex="1" parent="1">
                    <mxGeometry x="-436" y="4" width="70" height="20" as="geometry"/>
                </mxCell>
                <mxCell id="69" value="Mesh B" style="text;html=1;align=center;verticalAlign=middle;resizable=0;points=[];autosize=1;strokeColor=none;fillColor=none;fontSize=15;fontStyle=1" vertex="1" parent="1">
                    <mxGeometry x="388" y="-3" width="70" height="20" as="geometry"/>
                </mxCell>
                <mxCell id="70" value="Starting heartbeat" style="html=1;dashed=0;whitespace=wrap;fontSize=13;" vertex="1" parent="1">
                    <mxGeometry x="80" y="720" width="240" height="40" as="geometry"/>
                </mxCell>
                <mxCell id="72" value="Updating mesh, mesh: {}" style="html=1;dashed=0;whitespace=wrap;fontSize=13;" vertex="1" parent="1">
                    <mxGeometry x="-280" y="840" width="240" height="40" as="geometry"/>
                </mxCell>
                <mxCell id="73" value="" style="endArrow=none;dashed=1;html=1;fontSize=12;entryX=0.5;entryY=1;entryDx=0;entryDy=0;" edge="1" parent="1" target="72">
                    <mxGeometry width="50" height="50" relative="1" as="geometry">
                        <mxPoint x="-160" y="1620" as="sourcePoint"/>
                        <mxPoint x="-160" y="900" as="targetPoint"/>
                    </mxGeometry>
                </mxCell>
                <mxCell id="74" value="Updating mesh, mesh: { Peer(1) }" style="html=1;dashed=0;whitespace=wrap;fontSize=13;" vertex="1" parent="1">
                    <mxGeometry x="80" y="840" width="240" height="40" as="geometry"/>
                </mxCell>
                <mxCell id="77" value="Gossiping IHAVE to Peer(6)" style="html=1;dashed=0;whitespace=wrap;fontSize=13;" vertex="1" parent="1">
                    <mxGeometry x="-280" y="960" width="240" height="40" as="geometry"/>
                </mxCell>
                <mxCell id="79" value="&lt;font color=&quot;#ffbc21&quot;&gt;Gossiping IHAVE to 0 peers.&lt;/font&gt;" style="html=1;dashed=0;whitespace=wrap;fontSize=13;" vertex="1" parent="1">
                    <mxGeometry x="80" y="960" width="240" height="40" as="geometry"/>
                </mxCell>
                <mxCell id="80" value="Handle GRAFT" style="html=1;dashed=0;whitespace=wrap;fontSize=13;" vertex="1" parent="1">
                    <mxGeometry x="-280" y="1200" width="240" height="40" as="geometry"/>
                </mxCell>
                <mxCell id="81" value="Handle IWANT" style="html=1;dashed=0;whitespace=wrap;fontSize=13;" vertex="1" parent="1">
                    <mxGeometry x="-280" y="1280" width="240" height="40" as="geometry"/>
                </mxCell>
                <mxCell id="82" value="Forward the messages received from Peer(1)" style="html=1;dashed=0;whitespace=wrap;fontSize=13;" vertex="1" parent="1">
                    <mxGeometry x="50" y="1400" width="300" height="40" as="geometry"/>
                </mxCell>
                <mxCell id="83" value="" style="ellipse;whiteSpace=wrap;html=1;" vertex="1" parent="1">
                    <mxGeometry x="-630" y="90" width="120" height="80" as="geometry"/>
                </mxCell>
                <mxCell id="84" value="" style="ellipse;whiteSpace=wrap;html=1;" vertex="1" parent="1">
                    <mxGeometry x="-620" y="100" width="120" height="80" as="geometry"/>
                </mxCell>
                <mxCell id="85" value="" style="ellipse;whiteSpace=wrap;html=1;" vertex="1" parent="1">
                    <mxGeometry x="-610" y="110" width="120" height="80" as="geometry"/>
                </mxCell>
                <mxCell id="86" value="" style="ellipse;whiteSpace=wrap;html=1;" vertex="1" parent="1">
                    <mxGeometry x="-600" y="120" width="120" height="80" as="geometry"/>
                </mxCell>
                <mxCell id="87" value="" style="ellipse;whiteSpace=wrap;html=1;" vertex="1" parent="1">
                    <mxGeometry x="-590" y="130" width="120" height="80" as="geometry"/>
                </mxCell>
                <mxCell id="88" value="" style="ellipse;whiteSpace=wrap;html=1;" vertex="1" parent="1">
                    <mxGeometry x="-580" y="140" width="120" height="80" as="geometry"/>
                </mxCell>
                <mxCell id="89" value="" style="ellipse;whiteSpace=wrap;html=1;" vertex="1" parent="1">
                    <mxGeometry x="-570" y="150" width="120" height="80" as="geometry"/>
                </mxCell>
                <mxCell id="90" value="" style="ellipse;whiteSpace=wrap;html=1;" vertex="1" parent="1">
                    <mxGeometry x="-560" y="160" width="120" height="80" as="geometry"/>
                </mxCell>
                <mxCell id="91" value="" style="endArrow=classic;html=1;entryX=0;entryY=0.5;entryDx=0;entryDy=0;exitX=1;exitY=0;exitDx=0;exitDy=0;" edge="1" parent="1" source="56" target="48">
                    <mxGeometry width="50" height="50" relative="1" as="geometry">
                        <mxPoint x="-542.5735931288073" y="79.99572875253833" as="sourcePoint"/>
                        <mxPoint x="-267.42640687119274" y="79.99572875253787" as="targetPoint"/>
                    </mxGeometry>
                </mxCell>
                <mxCell id="92" value="" style="endArrow=classic;html=1;exitX=1;exitY=0;exitDx=0;exitDy=0;" edge="1" parent="1">
                    <mxGeometry width="50" height="50" relative="1" as="geometry">
                        <mxPoint x="-527.5735931288073" y="101.71572875253833" as="sourcePoint"/>
                        <mxPoint x="-220" y="170" as="targetPoint"/>
                    </mxGeometry>
                </mxCell>
                <mxCell id="93" value="" style="endArrow=classic;html=1;entryX=0;entryY=0.5;entryDx=0;entryDy=0;exitX=1;exitY=0;exitDx=0;exitDy=0;" edge="1" parent="1" target="48">
                    <mxGeometry width="50" height="50" relative="1" as="geometry">
                        <mxPoint x="-517.5735931288073" y="111.71572875253833" as="sourcePoint"/>
                        <mxPoint x="-200" y="190" as="targetPoint"/>
                    </mxGeometry>
                </mxCell>
                <mxCell id="94" value="" style="endArrow=classic;html=1;entryX=0;entryY=0.5;entryDx=0;entryDy=0;exitX=1;exitY=0;exitDx=0;exitDy=0;" edge="1" parent="1" target="48">
                    <mxGeometry width="50" height="50" relative="1" as="geometry">
                        <mxPoint x="-507.57359312880726" y="121.71572875253833" as="sourcePoint"/>
                        <mxPoint x="-190" y="200" as="targetPoint"/>
                    </mxGeometry>
                </mxCell>
                <mxCell id="95" value="" style="endArrow=classic;html=1;exitX=1;exitY=0;exitDx=0;exitDy=0;" edge="1" parent="1">
                    <mxGeometry width="50" height="50" relative="1" as="geometry">
                        <mxPoint x="-497.57359312880726" y="131.71572875253833" as="sourcePoint"/>
                        <mxPoint x="-220" y="170" as="targetPoint"/>
                    </mxGeometry>
                </mxCell>
                <mxCell id="96" value="" style="endArrow=classic;html=1;entryX=0;entryY=0.5;entryDx=0;entryDy=0;exitX=1;exitY=0;exitDx=0;exitDy=0;" edge="1" parent="1" target="48">
                    <mxGeometry width="50" height="50" relative="1" as="geometry">
                        <mxPoint x="-487.57359312880726" y="141.71572875253833" as="sourcePoint"/>
                        <mxPoint x="-170" y="220" as="targetPoint"/>
                    </mxGeometry>
                </mxCell>
                <mxCell id="97" value="" style="endArrow=classic;html=1;entryX=0;entryY=0.5;entryDx=0;entryDy=0;exitX=1;exitY=0;exitDx=0;exitDy=0;" edge="1" parent="1" target="48">
                    <mxGeometry width="50" height="50" relative="1" as="geometry">
                        <mxPoint x="-477.57359312880726" y="151.71572875253833" as="sourcePoint"/>
                        <mxPoint x="-160" y="230" as="targetPoint"/>
                    </mxGeometry>
                </mxCell>
                <mxCell id="98" value="" style="endArrow=classic;html=1;entryX=0;entryY=0.5;entryDx=0;entryDy=0;exitX=1;exitY=0;exitDx=0;exitDy=0;" edge="1" parent="1" target="48">
                    <mxGeometry width="50" height="50" relative="1" as="geometry">
                        <mxPoint x="-467.57359312880726" y="161.71572875253833" as="sourcePoint"/>
                        <mxPoint x="-150" y="240" as="targetPoint"/>
                    </mxGeometry>
                </mxCell>
                <mxCell id="99" value="" style="endArrow=classic;html=1;entryX=0;entryY=0.5;entryDx=0;entryDy=0;exitX=1;exitY=0;exitDx=0;exitDy=0;" edge="1" parent="1" target="48">
                    <mxGeometry width="50" height="50" relative="1" as="geometry">
                        <mxPoint x="-457.57359312880726" y="171.71572875253833" as="sourcePoint"/>
                        <mxPoint x="-140" y="250" as="targetPoint"/>
                    </mxGeometry>
                </mxCell>
                <mxCell id="100" value="" style="ellipse;whiteSpace=wrap;html=1;" vertex="1" parent="1">
                    <mxGeometry x="460" y="80" width="120" height="80" as="geometry"/>
                </mxCell>
                <mxCell id="101" value="" style="ellipse;whiteSpace=wrap;html=1;" vertex="1" parent="1">
                    <mxGeometry x="470" y="90" width="120" height="80" as="geometry"/>
                </mxCell>
                <mxCell id="102" value="" style="ellipse;whiteSpace=wrap;html=1;" vertex="1" parent="1">
                    <mxGeometry x="480" y="100" width="120" height="80" as="geometry"/>
                </mxCell>
                <mxCell id="103" value="" style="ellipse;whiteSpace=wrap;html=1;" vertex="1" parent="1">
                    <mxGeometry x="490" y="110" width="120" height="80" as="geometry"/>
                </mxCell>
                <mxCell id="104" value="" style="ellipse;whiteSpace=wrap;html=1;" vertex="1" parent="1">
                    <mxGeometry x="500" y="120" width="120" height="80" as="geometry"/>
                </mxCell>
                <mxCell id="105" value="" style="ellipse;whiteSpace=wrap;html=1;" vertex="1" parent="1">
                    <mxGeometry x="510" y="130" width="120" height="80" as="geometry"/>
                </mxCell>
                <mxCell id="106" value="" style="ellipse;whiteSpace=wrap;html=1;" vertex="1" parent="1">
                    <mxGeometry x="520" y="140" width="120" height="80" as="geometry"/>
                </mxCell>
                <mxCell id="107" value="" style="ellipse;whiteSpace=wrap;html=1;" vertex="1" parent="1">
                    <mxGeometry x="530" y="150" width="120" height="80" as="geometry"/>
                </mxCell>
                <mxCell id="108" value="" style="endArrow=classic;html=1;entryX=1;entryY=0.5;entryDx=0;entryDy=0;exitX=0;exitY=0;exitDx=0;exitDy=0;" edge="1" parent="1" source="62" target="49">
                    <mxGeometry width="50" height="50" relative="1" as="geometry">
                        <mxPoint x="-107.57359312880726" y="151.71572875253787" as="sourcePoint"/>
                        <mxPoint x="167.57359312880726" y="151.71572875253833" as="targetPoint"/>
                    </mxGeometry>
                </mxCell>
                <mxCell id="109" value="" style="endArrow=classic;html=1;exitX=0;exitY=0;exitDx=0;exitDy=0;" edge="1" parent="1">
                    <mxGeometry width="50" height="50" relative="1" as="geometry">
                        <mxPoint x="477.57359312880726" y="91.71572875253833" as="sourcePoint"/>
                        <mxPoint x="270" y="170" as="targetPoint"/>
                    </mxGeometry>
                </mxCell>
                <mxCell id="110" value="" style="endArrow=classic;html=1;exitX=0;exitY=0;exitDx=0;exitDy=0;" edge="1" parent="1">
                    <mxGeometry width="50" height="50" relative="1" as="geometry">
                        <mxPoint x="487.57359312880726" y="101.71572875253833" as="sourcePoint"/>
                        <mxPoint x="260" y="170" as="targetPoint"/>
                    </mxGeometry>
                </mxCell>
                <mxCell id="111" value="" style="endArrow=classic;html=1;exitX=0;exitY=0;exitDx=0;exitDy=0;" edge="1" parent="1">
                    <mxGeometry width="50" height="50" relative="1" as="geometry">
                        <mxPoint x="497.57359312880726" y="111.71572875253833" as="sourcePoint"/>
                        <mxPoint x="260" y="170" as="targetPoint"/>
                    </mxGeometry>
                </mxCell>
                <mxCell id="112" value="" style="endArrow=classic;html=1;entryX=1;entryY=0.5;entryDx=0;entryDy=0;exitX=0;exitY=0;exitDx=0;exitDy=0;" edge="1" parent="1" target="49">
                    <mxGeometry width="50" height="50" relative="1" as="geometry">
                        <mxPoint x="507.57359312880726" y="121.71572875253833" as="sourcePoint"/>
                        <mxPoint x="300" y="210" as="targetPoint"/>
                    </mxGeometry>
                </mxCell>
                <mxCell id="113" value="" style="endArrow=classic;html=1;exitX=0;exitY=0;exitDx=0;exitDy=0;" edge="1" parent="1">
                    <mxGeometry width="50" height="50" relative="1" as="geometry">
                        <mxPoint x="517.5735931288073" y="131.71572875253833" as="sourcePoint"/>
                        <mxPoint x="260" y="170" as="targetPoint"/>
                    </mxGeometry>
                </mxCell>
                <mxCell id="114" value="" style="endArrow=classic;html=1;exitX=0;exitY=0;exitDx=0;exitDy=0;" edge="1" parent="1">
                    <mxGeometry width="50" height="50" relative="1" as="geometry">
                        <mxPoint x="527.5735931288073" y="141.71572875253833" as="sourcePoint"/>
                        <mxPoint x="260" y="170" as="targetPoint"/>
                    </mxGeometry>
                </mxCell>
                <mxCell id="115" value="" style="endArrow=classic;html=1;entryX=1;entryY=0.5;entryDx=0;entryDy=0;exitX=0;exitY=0;exitDx=0;exitDy=0;" edge="1" parent="1" target="49">
                    <mxGeometry width="50" height="50" relative="1" as="geometry">
                        <mxPoint x="537.5735931288073" y="151.71572875253833" as="sourcePoint"/>
                        <mxPoint x="330" y="240" as="targetPoint"/>
                    </mxGeometry>
                </mxCell>
                <mxCell id="116" value="" style="endArrow=classic;html=1;exitX=0;exitY=0;exitDx=0;exitDy=0;" edge="1" parent="1">
                    <mxGeometry width="50" height="50" relative="1" as="geometry">
                        <mxPoint x="547.5735931288073" y="161.71572875253833" as="sourcePoint"/>
                        <mxPoint x="260" y="170" as="targetPoint"/>
                    </mxGeometry>
                </mxCell>
                <mxCell id="117" value="" style="endArrow=none;dashed=1;html=1;fontSize=12;" edge="1" parent="1" target="107">
                    <mxGeometry width="50" height="50" relative="1" as="geometry">
                        <mxPoint x="600" y="1620" as="sourcePoint"/>
                        <mxPoint x="690" y="420" as="targetPoint"/>
                    </mxGeometry>
                </mxCell>
                <mxCell id="118" value="" style="endArrow=classic;html=1;" edge="1" parent="1">
                    <mxGeometry width="50" height="50" relative="1" as="geometry">
                        <mxPoint x="200" y="1480" as="sourcePoint"/>
                        <mxPoint x="600" y="1480" as="targetPoint"/>
                    </mxGeometry>
                </mxCell>
                <mxCell id="119" value="messages" style="edgeLabel;html=1;align=center;verticalAlign=middle;resizable=0;points=[];fontSize=13;" vertex="1" connectable="0" parent="118">
                    <mxGeometry x="0.2111" y="2" relative="1" as="geometry">
                        <mxPoint x="-168" y="-8" as="offset"/>
                    </mxGeometry>
                </mxCell>
                <mxCell id="120" value="" style="endArrow=none;dashed=1;html=1;fontSize=12;" edge="1" parent="1">
                    <mxGeometry width="50" height="50" relative="1" as="geometry">
                        <mxPoint x="-490" y="1630" as="sourcePoint"/>
                        <mxPoint x="-500.00370731119597" y="239.99951298849192" as="targetPoint"/>
                    </mxGeometry>
                </mxCell>
                <mxCell id="121" value="&lt;font color=&quot;#58e800&quot;&gt;Received all the published messages&lt;/font&gt;" style="html=1;dashed=0;whitespace=wrap;fontSize=13;" vertex="1" parent="1">
                    <mxGeometry x="50" y="1530" width="300" height="40" as="geometry"/>
                </mxCell>
                <mxCell id="123" value="&lt;font color=&quot;#58e800&quot;&gt;Received all the published messages&lt;/font&gt;" style="html=1;dashed=0;whitespace=wrap;fontSize=13;" vertex="1" parent="1">
                    <mxGeometry x="440" y="1530" width="300" height="40" as="geometry"/>
                </mxCell>
                <mxCell id="35" value="Waiting for the message published from the nodes in Mesh B." style="shape=note;whiteSpace=wrap;html=1;backgroundOutline=1;darkOpacity=0.05;fontColor=#FF9933;fontSize=13;" parent="1" vertex="1">
                    <mxGeometry x="-590" y="1450" width="500" height="110" as="geometry"/>
                </mxCell>
                <mxCell id="10" value="Before the heartbeat starts, the nodes send/receive messages to/from the nodes within the mesh it belongs." style="shape=note;whiteSpace=wrap;html=1;backgroundOutline=1;darkOpacity=0.05;" parent="1" vertex="1">
                    <mxGeometry x="-560" y="500" width="1240" height="130" as="geometry"/>
                </mxCell>
                <mxCell id="126" value="Since Peer(1) has been added to the mesh, there are no peers to gossip." style="shape=note;whiteSpace=wrap;html=1;backgroundOutline=1;darkOpacity=0.05;fontColor=#F0F0F0;fontSize=13;" vertex="1" parent="1">
                    <mxGeometry x="670" y="790" width="500" height="110" as="geometry"/>
                </mxCell>
                <mxCell id="127" value="" style="endArrow=none;dashed=1;html=1;fontSize=15;fontColor=#F0F0F0;entryX=-0.01;entryY=0.295;entryDx=0;entryDy=0;entryPerimeter=0;exitX=1;exitY=0.5;exitDx=0;exitDy=0;" edge="1" parent="1" source="74" target="126">
                    <mxGeometry width="50" height="50" relative="1" as="geometry">
                        <mxPoint x="380" y="940" as="sourcePoint"/>
                        <mxPoint x="430" y="890" as="targetPoint"/>
                    </mxGeometry>
                </mxCell>
                <mxCell id="128" value="" style="endArrow=none;dashed=1;html=1;fontSize=15;fontColor=#F0F0F0;entryX=-0.01;entryY=0.314;entryDx=0;entryDy=0;entryPerimeter=0;exitX=1;exitY=0.25;exitDx=0;exitDy=0;" edge="1" parent="1" source="79" target="126">
                    <mxGeometry width="50" height="50" relative="1" as="geometry">
                        <mxPoint x="330" y="870" as="sourcePoint"/>
                        <mxPoint x="655" y="892.4499999999998" as="targetPoint"/>
                    </mxGeometry>
                </mxCell>
            </root>
        </mxGraphModel>
    </diagram>
</mxfile>